<svg width="44" height="17" viewBox="0 0 44 17" fill="none" xmlns="http://www.w3.org/2000/svg">
<rect x="0.5" width="43" height="17" rx="8.5" fill="#364D9D"/>
<path d="M9.41 5.51H10.7L13.65 10.14H13.56V5.51H14.74V12H13.54L10.4 7.09H10.59V12H9.41V5.51ZM19.078 12.14C18.5013 12.14 17.9913 12.0133 17.548 11.76C17.108 11.5067 16.763 11.1283 16.513 10.625C16.263 10.1217 16.138 9.49667 16.138 8.75C16.138 7.99 16.263 7.36167 16.513 6.865C16.763 6.365 17.108 5.99333 17.548 5.75C17.9913 5.50333 18.5013 5.38 19.078 5.38C19.658 5.38 20.1696 5.50667 20.613 5.76C21.0563 6.01 21.403 6.385 21.653 6.885C21.903 7.385 22.028 8.00667 22.028 8.75C22.028 9.50667 21.903 10.1367 21.653 10.64C21.403 11.1433 21.0563 11.52 20.613 11.77C20.1696 12.0167 19.658 12.14 19.078 12.14ZM19.078 11.07C19.608 11.07 20.028 10.87 20.338 10.47C20.6513 10.07 20.808 9.49333 20.808 8.74C20.808 8.01333 20.6513 7.44833 20.338 7.045C20.028 6.64167 19.608 6.44 19.078 6.44C18.558 6.44 18.1413 6.64333 17.828 7.05C17.5146 7.45333 17.358 8.02 17.358 8.75C17.358 9.5 17.5146 10.075 17.828 10.475C18.1413 10.8717 18.558 11.07 19.078 11.07ZM25.2879 10.71L26.9479 5.51H28.1879L25.9579 12H24.7179L22.5179 5.51H23.7679L25.4079 10.71H25.2879ZM31.617 12.14C31.0404 12.14 30.5304 12.0133 30.087 11.76C29.647 11.5067 29.302 11.1283 29.052 10.625C28.802 10.1217 28.677 9.49667 28.677 8.75C28.677 7.99 28.802 7.36167 29.052 6.865C29.302 6.365 29.647 5.99333 30.087 5.75C30.5304 5.50333 31.0404 5.38 31.617 5.38C32.197 5.38 32.7087 5.50667 33.152 5.76C33.5954 6.01 33.942 6.385 34.192 6.885C34.442 7.385 34.567 8.00667 34.567 8.75C34.567 9.50667 34.442 10.1367 34.192 10.64C33.942 11.1433 33.5954 11.52 33.152 11.77C32.7087 12.0167 32.197 12.14 31.617 12.14ZM31.617 11.07C32.147 11.07 32.567 10.87 32.877 10.47C33.1904 10.07 33.347 9.49333 33.347 8.74C33.347 8.01333 33.1904 7.44833 32.877 7.045C32.567 6.64167 32.147 6.44 31.617 6.44C31.097 6.44 30.6804 6.64333 30.367 7.05C30.0537 7.45333 29.897 8.02 29.897 8.75C29.897 9.5 30.0537 10.075 30.367 10.475C30.6804 10.8717 31.097 11.07 31.617 11.07Z" fill="white"/>
</svg>
