<svg width="43" height="17" viewBox="0 0 43 17" fill="none" xmlns="http://www.w3.org/2000/svg">
<rect width="43" height="17" rx="8.5" fill="#D9D8DA"/>
<path d="M8.91 5.51H10.2L13.15 10.14H13.06V5.51H14.24V12H13.04L9.9 7.09H10.09V12H8.91V5.51ZM18.578 12.14C18.0013 12.14 17.4913 12.0133 17.048 11.76C16.608 11.5067 16.263 11.1283 16.013 10.625C15.763 10.1217 15.638 9.49667 15.638 8.75C15.638 7.99 15.763 7.36167 16.013 6.865C16.263 6.365 16.608 5.99333 17.048 5.75C17.4913 5.50333 18.0013 5.38 18.578 5.38C19.158 5.38 19.6696 5.50667 20.113 5.76C20.5563 6.01 20.903 6.385 21.153 6.885C21.403 7.385 21.528 8.00667 21.528 8.75C21.528 9.50667 21.403 10.1367 21.153 10.64C20.903 11.1433 20.5563 11.52 20.113 11.77C19.6696 12.0167 19.158 12.14 18.578 12.14ZM18.578 11.07C19.108 11.07 19.528 10.87 19.838 10.47C20.1513 10.07 20.308 9.49333 20.308 8.74C20.308 8.01333 20.1513 7.44833 19.838 7.045C19.528 6.64167 19.108 6.44 18.578 6.44C18.058 6.44 17.6413 6.64333 17.328 7.05C17.0146 7.45333 16.858 8.02 16.858 8.75C16.858 9.5 17.0146 10.075 17.328 10.475C17.6413 10.8717 18.058 11.07 18.578 11.07ZM24.7879 10.71L26.4479 5.51H27.6879L25.4579 12H24.2179L22.0179 5.51H23.2679L24.9079 10.71H24.7879ZM31.117 12.14C30.5404 12.14 30.0304 12.0133 29.587 11.76C29.147 11.5067 28.802 11.1283 28.552 10.625C28.302 10.1217 28.177 9.49667 28.177 8.75C28.177 7.99 28.302 7.36167 28.552 6.865C28.802 6.365 29.147 5.99333 29.587 5.75C30.0304 5.50333 30.5404 5.38 31.117 5.38C31.697 5.38 32.2087 5.50667 32.652 5.76C33.0954 6.01 33.442 6.385 33.692 6.885C33.942 7.385 34.067 8.00667 34.067 8.75C34.067 9.50667 33.942 10.1367 33.692 10.64C33.442 11.1433 33.0954 11.52 32.652 11.77C32.2087 12.0167 31.697 12.14 31.117 12.14ZM31.117 11.07C31.647 11.07 32.067 10.87 32.377 10.47C32.6904 10.07 32.847 9.49333 32.847 8.74C32.847 8.01333 32.6904 7.44833 32.377 7.045C32.067 6.64167 31.647 6.44 31.117 6.44C30.597 6.44 30.1804 6.64333 29.867 7.05C29.5537 7.45333 29.397 8.02 29.397 8.75C29.397 9.5 29.5537 10.075 29.867 10.475C30.1804 10.8717 30.597 11.07 31.117 11.07Z" fill="#3E3A40"/>
</svg>
