<svg width="50" height="17" viewBox="0 0 50 17" fill="none" xmlns="http://www.w3.org/2000/svg">
<rect width="50" height="17" rx="8.5" fill="#3E3A40"/>
<path d="M8.83 5.51H10.01V9.55C10.01 10.0833 10.145 10.4683 10.415 10.705C10.6883 10.9417 11.0367 11.06 11.46 11.06C11.8867 11.06 12.235 10.9417 12.505 10.705C12.775 10.4683 12.91 10.0833 12.91 9.55V5.51H14.09V9.55C14.09 10.0967 13.985 10.5633 13.775 10.95C13.565 11.3367 13.2633 11.6317 12.87 11.835C12.48 12.0383 12.01 12.14 11.46 12.14C10.91 12.14 10.4383 12.0383 10.045 11.835C9.655 11.6317 9.355 11.3367 9.145 10.95C8.935 10.5633 8.83 10.0967 8.83 9.55V5.51ZM18.0943 12.14C17.6443 12.14 17.2293 12.0617 16.8493 11.905C16.4726 11.7483 16.166 11.51 15.9293 11.19C15.696 10.87 15.571 10.4633 15.5543 9.97H16.7143C16.7143 10.22 16.776 10.425 16.8993 10.585C17.0226 10.745 17.1876 10.865 17.3943 10.945C17.6043 11.0217 17.8343 11.06 18.0843 11.06C18.3243 11.06 18.5376 11.0283 18.7243 10.965C18.9143 10.9017 19.0626 10.8117 19.1693 10.695C19.2793 10.575 19.3343 10.4333 19.3343 10.27C19.3343 10.0533 19.2676 9.88333 19.1343 9.76C19.0043 9.63667 18.7943 9.52333 18.5043 9.42L17.2243 8.91C16.7243 8.71333 16.341 8.485 16.0743 8.225C15.8076 7.965 15.6743 7.60667 15.6743 7.15C15.6743 6.62333 15.8826 6.19667 16.2993 5.87C16.716 5.54333 17.2976 5.38 18.0443 5.38C18.771 5.38 19.3326 5.55 19.7293 5.89C20.126 6.22667 20.351 6.69667 20.4043 7.3H19.2443C19.201 7.04333 19.0843 6.83833 18.8943 6.685C18.7043 6.52833 18.421 6.45 18.0443 6.45C17.711 6.45 17.4476 6.52 17.2543 6.66C17.061 6.79667 16.9643 6.97 16.9643 7.18C16.9643 7.36 17.0243 7.50333 17.1443 7.61C17.2676 7.71333 17.4576 7.81333 17.7143 7.91L19.1343 8.46C19.6143 8.64667 19.9826 8.88167 20.2393 9.165C20.496 9.44833 20.6243 9.80333 20.6243 10.23C20.6243 10.62 20.526 10.9583 20.3293 11.245C20.1326 11.5283 19.846 11.7483 19.4693 11.905C19.0926 12.0617 18.6343 12.14 18.0943 12.14ZM21.5013 12L23.7113 5.51H25.1913L27.3113 12H26.0713L25.6213 10.6H23.2113L22.7512 12H21.5013ZM23.5113 9.71H25.3413L24.4313 6.92L23.5113 9.71ZM28.471 5.51H30.571C31.231 5.51 31.8093 5.64333 32.306 5.91C32.8027 6.17333 33.1893 6.54833 33.466 7.035C33.7427 7.52167 33.881 8.09667 33.881 8.76C33.881 9.41667 33.7427 9.98833 33.466 10.475C33.1893 10.9583 32.8027 11.3333 32.306 11.6C31.8093 11.8667 31.231 12 30.571 12H28.471V5.51ZM29.651 6.58V10.94H30.571C30.991 10.94 31.3527 10.845 31.656 10.655C31.9627 10.465 32.1977 10.2067 32.361 9.88C32.5277 9.55 32.611 9.17667 32.611 8.76C32.611 8.33667 32.5277 7.96167 32.361 7.635C32.1977 7.30833 31.9627 7.05167 31.656 6.865C31.3527 6.675 30.991 6.58 30.571 6.58H29.651ZM37.8163 12.14C37.2396 12.14 36.7296 12.0133 36.2863 11.76C35.8463 11.5067 35.5013 11.1283 35.2513 10.625C35.0013 10.1217 34.8763 9.49667 34.8763 8.75C34.8763 7.99 35.0013 7.36167 35.2513 6.865C35.5013 6.365 35.8463 5.99333 36.2863 5.75C36.7296 5.50333 37.2396 5.38 37.8163 5.38C38.3963 5.38 38.9079 5.50667 39.3513 5.76C39.7946 6.01 40.1413 6.385 40.3913 6.885C40.6413 7.385 40.7663 8.00667 40.7663 8.75C40.7663 9.50667 40.6413 10.1367 40.3913 10.64C40.1413 11.1433 39.7946 11.52 39.3513 11.77C38.9079 12.0167 38.3963 12.14 37.8163 12.14ZM37.8163 11.07C38.3463 11.07 38.7663 10.87 39.0763 10.47C39.3896 10.07 39.5462 9.49333 39.5462 8.74C39.5462 8.01333 39.3896 7.44833 39.0763 7.045C38.7663 6.64167 38.3463 6.44 37.8163 6.44C37.2963 6.44 36.8796 6.64333 36.5663 7.05C36.2529 7.45333 36.0963 8.02 36.0963 8.75C36.0963 9.5 36.2529 10.075 36.5663 10.475C36.8796 10.8717 37.2963 11.07 37.8163 11.07Z" fill="white"/>
</svg>
